<?xml version="1.0" encoding="UTF-8"?>
<svg width="48px" height="48px" viewBox="0 0 48 48" version="1.1" xmlns="http://www.w3.org/2000/svg" xmlns:xlink="http://www.w3.org/1999/xlink">
    <!-- Generator: sketchtool 63.1 (101010) - https://sketch.com -->
    <title>B78A842F-ABF9-4D9A-8E8A-C3B569922B74</title>
    <desc>Created with sketchtool.</desc>
    <g id="Page-1" stroke="none" stroke-width="1" fill="none" fill-rule="evenodd">
        <g id="COVID-19" transform="translate(-470.000000, -447.000000)" fill="#FFFFFF" fill-rule="nonzero">
            <g id="noun_virus_3284087" transform="translate(470.000000, 447.000000)">
                <g id="Group">
                    <path d="M43.446,24.796 C43.602,25.214 43.876,25.578 44.242,25.844 C44.636,26.132 45.1,26.284 45.588,26.284 C46.848,26.284 47.872,25.258 47.872,23.998 C47.872,22.738 46.848,21.712 45.588,21.712 C45.1,21.712 44.634,21.864 44.242,22.154 C43.876,22.42 43.602,22.782 43.446,23.202 L40.408,23.202 C40.38,22.654 40.328,22.108 40.25,21.578 L41.676,21.292 C41.884,21.25 42.064,21.132 42.182,20.954 C42.302,20.778 42.344,20.566 42.302,20.356 C42.27,20.198 42.184,20.054 42.036,19.918 C42.028,19.912 42.016,19.898 42,19.886 C41.884,19.798 41.746,19.748 41.58,19.734 L41.548,19.718 L41.522,19.718 C41.466,19.718 41.416,19.722 41.366,19.734 L39.94,20.018 C39.81,19.492 39.65,18.968 39.466,18.458 L42.27,17.296 C42.496,17.54 42.764,17.726 43.068,17.85 C43.624,18.082 44.238,18.086 44.798,17.858 L44.816,17.852 C44.858,17.834 44.892,17.808 44.918,17.786 C44.934,17.772 44.95,17.76 44.964,17.754 C45.254,17.606 45.508,17.388 45.724,17.11 L45.784,17.034 C45.882,16.908 45.986,16.776 46.054,16.616 C46.286,16.052 46.286,15.43 46.054,14.864 C45.82,14.302 45.38,13.862 44.816,13.63 C44.252,13.396 43.63,13.396 43.066,13.63 C42.786,13.746 42.538,13.912 42.322,14.124 C42.202,14.246 42.118,14.394 42.038,14.536 L41.992,14.618 C41.974,14.65 41.952,14.676 41.93,14.704 C41.9,14.748 41.86,14.8 41.834,14.864 L41.826,14.886 C41.704,15.186 41.65,15.504 41.662,15.826 L38.858,16.986 C38.628,16.496 38.37,16.014 38.09,15.546 L39.298,14.74 C39.474,14.62 39.594,14.442 39.636,14.232 C39.678,14.026 39.636,13.808 39.518,13.634 L39.486,13.59 L39.484,13.59 C39.386,13.466 39.246,13.38 39.062,13.328 C39.028,13.318 39,13.31 38.964,13.304 L38.938,13.296 C38.918,13.29 38.89,13.28 38.856,13.28 C38.71,13.28 38.568,13.32 38.442,13.398 L37.202,14.22 C36.882,13.788 36.534,13.364 36.166,12.96 L38.312,10.814 C38.608,10.95 38.936,11.022 39.264,11.022 C39.788,11.022 40.294,10.826 40.73,10.456 C40.742,10.444 40.76,10.434 40.78,10.422 C40.812,10.404 40.848,10.384 40.878,10.352 C41.31,9.922 41.546,9.348 41.546,8.736 C41.546,8.124 41.308,7.55 40.878,7.12 C40.446,6.688 39.872,6.45 39.262,6.45 C38.652,6.45 38.078,6.688 37.646,7.12 C37.592,7.172 37.554,7.234 37.516,7.29 C37.498,7.322 37.478,7.35 37.456,7.38 C37.076,7.89 36.916,8.494 37.006,9.08 C37.038,9.288 37.098,9.492 37.186,9.686 L35.04,11.834 C34.642,11.474 34.218,11.126 33.778,10.8 L34.588,9.588 C34.832,9.224 34.732,8.728 34.368,8.484 L34.34,8.466 L34.34,8.466 C34.214,8.39 34.072,8.348 33.926,8.348 C33.89,8.348 33.862,8.358 33.824,8.372 C33.796,8.376 33.772,8.382 33.748,8.388 L33.714,8.398 C33.508,8.458 33.36,8.558 33.256,8.714 C33.234,8.748 32.798,9.396 32.448,9.916 C31.986,9.638 31.504,9.38 31.014,9.146 L32.178,6.34 C32.286,6.35 32.384,6.334 32.476,6.314 C32.512,6.308 32.546,6.3 32.584,6.296 C32.614,6.29 32.642,6.288 32.67,6.284 C32.732,6.278 32.794,6.27 32.854,6.252 C32.972,6.22 33.08,6.17 33.186,6.12 L33.24,6.094 C33.266,6.08 33.292,6.07 33.32,6.058 C33.374,6.034 33.428,6.012 33.478,5.982 C33.598,5.906 33.7,5.81 33.798,5.716 L33.828,5.686 C33.846,5.668 33.868,5.652 33.886,5.638 C33.924,5.608 33.964,5.576 33.998,5.532 C34.146,5.362 34.266,5.17 34.362,4.948 L34.372,4.928 C34.49,4.644 34.548,4.346 34.544,4.04 C34.538,3.118 33.984,2.296 33.134,1.944 C32.578,1.712 31.94,1.708 31.384,1.944 C30.82,2.176 30.382,2.616 30.146,3.178 C29.912,3.742 29.912,4.364 30.146,4.926 C30.272,5.232 30.458,5.5 30.702,5.726 L29.54,8.528 C29.03,8.344 28.504,8.184 27.98,8.054 L28.262,6.63 C28.312,6.376 28.23,6.118 28.036,5.922 C27.924,5.81 27.81,5.74 27.684,5.706 L27.64,5.694 C27.64,5.694 27.638,5.694 27.638,5.694 L27.518,5.668 L27.518,5.68 C27.474,5.682 27.424,5.692 27.436,5.694 C27.27,5.704 27.124,5.754 27.006,5.846 C26.986,5.86 26.974,5.874 26.956,5.892 C26.818,6.016 26.732,6.162 26.702,6.32 L26.42,7.75 C25.886,7.672 25.34,7.618 24.796,7.592 L24.796,4.554 C25.69,4.222 26.284,3.37 26.284,2.414 C26.284,2.108 26.224,1.808 26.104,1.526 C25.748,0.678 24.92,0.128 24,0.128 C23.392,0.128 22.818,0.366 22.386,0.798 C21.954,1.232 21.716,1.804 21.716,2.414 C21.716,2.9 21.868,3.368 22.156,3.76 C22.424,4.126 22.784,4.398 23.204,4.554 L23.204,7.592 C22.642,7.622 22.096,7.674 21.58,7.75 L21.296,6.324 C21.264,6.166 21.178,6.022 21.03,5.884 C21.018,5.872 21.008,5.86 20.996,5.852 C20.874,5.756 20.728,5.706 20.582,5.7 L20.54,5.684 L20.516,5.684 C20.462,5.684 20.408,5.69 20.36,5.7 C20.152,5.74 19.972,5.86 19.854,6.038 C19.734,6.214 19.692,6.426 19.734,6.636 L20.018,8.064 C19.492,8.194 18.966,8.352 18.456,8.536 L17.294,5.73 C17.538,5.506 17.724,5.238 17.852,4.932 C17.968,4.65 18.026,4.356 18.026,4.056 C18.026,3.756 17.966,3.462 17.852,3.182 C17.618,2.62 17.178,2.18 16.614,1.948 C16.05,1.716 15.428,1.712 14.864,1.948 C14.016,2.298 13.462,3.122 13.456,4.042 C13.452,4.35 13.51,4.648 13.628,4.932 C13.718,5.146 13.844,5.352 14.002,5.538 C14.034,5.576 14.07,5.604 14.106,5.634 C14.128,5.652 14.148,5.67 14.17,5.688 L14.196,5.714 C14.296,5.806 14.4,5.906 14.522,5.982 C14.57,6.014 14.622,6.034 14.674,6.058 C14.702,6.068 14.728,6.08 14.756,6.094 L14.792,6.112 C14.902,6.164 15.018,6.22 15.144,6.254 C15.208,6.272 15.274,6.28 15.338,6.286 C15.364,6.29 15.39,6.292 15.414,6.296 C15.448,6.3 15.48,6.308 15.512,6.314 C15.61,6.334 15.72,6.35 15.822,6.342 L16.986,9.148 C16.492,9.38 16.008,9.64 15.548,9.918 L14.738,8.706 C14.64,8.558 14.494,8.458 14.282,8.396 L14.254,8.388 C14.23,8.382 14.206,8.376 14.16,8.368 C14.138,8.36 14.11,8.35 14.076,8.35 C13.92,8.35 13.768,8.394 13.634,8.482 C13.268,8.728 13.17,9.224 13.414,9.588 L14.228,10.806 C13.788,11.13 13.366,11.478 12.966,11.84 L10.814,9.686 C10.902,9.496 10.962,9.292 10.994,9.08 C11.104,8.364 10.864,7.63 10.352,7.122 C9.92,6.69 9.346,6.452 8.736,6.452 C8.128,6.452 7.554,6.69 7.12,7.122 C6.69,7.55 6.452,8.124 6.452,8.736 C6.452,9.348 6.69,9.922 7.12,10.352 C7.55,10.784 8.124,11.022 8.736,11.022 C9.068,11.022 9.388,10.952 9.688,10.814 L11.84,12.966 C11.476,13.37 11.128,13.792 10.806,14.224 L9.588,13.414 C9.458,13.326 9.306,13.28 9.148,13.28 C9.114,13.28 9.086,13.29 9.064,13.296 L9.04,13.302 C9,13.308 8.972,13.316 8.938,13.328 C8.736,13.382 8.584,13.486 8.484,13.632 C8.338,13.85 8.334,14.116 8.472,14.4 L8.496,14.452 C8.54,14.552 8.59,14.662 8.704,14.738 L9.918,15.548 C9.642,16.008 9.382,16.49 9.148,16.986 L6.34,15.824 C6.352,15.492 6.296,15.172 6.17,14.866 C5.934,14.3 5.496,13.862 4.932,13.628 C4.368,13.394 3.748,13.396 3.182,13.628 C2.616,13.86 2.18,14.3 1.946,14.866 C1.744,15.35 1.732,15.894 1.91,16.44 C1.916,16.458 1.916,16.478 1.918,16.496 C1.922,16.532 1.926,16.572 1.946,16.616 C2.014,16.778 2.116,16.908 2.216,17.036 L2.272,17.11 C2.294,17.138 2.31,17.168 2.328,17.198 C2.358,17.25 2.392,17.306 2.44,17.356 C2.65,17.568 2.9,17.734 3.182,17.85 C3.738,18.084 4.376,18.084 4.932,17.85 C5.232,17.726 5.508,17.536 5.73,17.296 L8.534,18.458 C8.354,18.96 8.194,19.486 8.06,20.018 L6.636,19.734 C6.586,19.724 6.534,19.718 6.478,19.718 C6.446,19.718 6.422,19.73 6.432,19.732 C6.266,19.744 6.12,19.796 6.004,19.884 C5.986,19.898 5.972,19.912 5.952,19.934 C5.814,20.06 5.728,20.204 5.698,20.36 C5.612,20.79 5.892,21.212 6.324,21.298 L7.75,21.582 C7.672,22.116 7.618,22.662 7.592,23.206 L4.554,23.206 C4.222,22.312 3.37,21.716 2.414,21.716 C1.806,21.716 1.232,21.954 0.8,22.386 C0.368,22.818 0.128,23.39 0.128,24 C0.128,24.92 0.676,25.746 1.524,26.106 C1.804,26.226 2.102,26.286 2.412,26.286 C3.134,26.286 3.822,25.938 4.252,25.352 C4.28,25.314 4.298,25.272 4.32,25.228 C4.33,25.202 4.342,25.18 4.356,25.156 L4.384,25.112 C4.444,25.014 4.506,24.91 4.552,24.798 L7.592,24.798 C7.618,25.342 7.672,25.888 7.75,26.422 L6.324,26.708 C6.116,26.75 5.936,26.868 5.818,27.046 C5.698,27.222 5.656,27.434 5.698,27.644 L5.714,27.724 L5.72,27.724 C5.762,27.852 5.842,27.97 5.964,28.082 C5.974,28.09 5.986,28.104 6,28.114 C6.118,28.202 6.26,28.254 6.42,28.268 L6.454,28.282 L6.48,28.282 C6.534,28.282 6.588,28.276 6.636,28.266 L8.062,27.982 C8.196,28.516 8.354,29.04 8.536,29.542 L5.732,30.706 C5.508,30.462 5.238,30.274 4.934,30.15 C4.37,29.916 3.75,29.918 3.184,30.15 C3.052,30.202 2.946,30.286 2.842,30.364 C2.806,30.392 2.772,30.416 2.738,30.444 C2.494,30.62 2.3,30.83 2.144,31.086 C2.122,31.122 2.098,31.154 2.072,31.186 C2.028,31.246 1.98,31.308 1.948,31.386 C1.93,31.428 1.926,31.468 1.922,31.504 C1.92,31.524 1.92,31.544 1.914,31.56 C1.736,32.104 1.748,32.65 1.95,33.136 C2.184,33.698 2.624,34.138 3.188,34.37 C3.752,34.604 4.372,34.604 4.938,34.37 C5.218,34.254 5.468,34.088 5.682,33.876 C5.892,33.664 6.058,33.416 6.176,33.134 C6.302,32.83 6.358,32.508 6.346,32.176 L9.154,31.014 C9.388,31.508 9.648,31.992 9.924,32.454 L8.71,33.264 C8.598,33.338 8.548,33.448 8.502,33.544 L8.472,33.6 C8.334,33.886 8.34,34.15 8.484,34.368 C8.582,34.516 8.732,34.616 8.952,34.678 C8.982,34.688 9.01,34.696 9.064,34.706 C9.084,34.712 9.112,34.722 9.148,34.722 C9.308,34.722 9.46,34.676 9.59,34.59 L10.806,33.778 C11.128,34.212 11.476,34.634 11.84,35.036 L9.688,37.188 C9.388,37.052 9.068,36.98 8.736,36.98 C8.128,36.98 7.554,37.218 7.12,37.65 C6.688,38.08 6.452,38.654 6.452,39.266 C6.452,39.878 6.69,40.452 7.12,40.882 C7.55,41.314 8.124,41.552 8.736,41.552 C9.348,41.552 9.922,41.314 10.352,40.882 C10.862,40.372 11.102,39.64 10.994,38.924 C10.962,38.716 10.902,38.512 10.814,38.318 L12.968,36.164 C13.372,36.532 13.796,36.878 14.228,37.2 L13.414,38.416 C13.17,38.78 13.268,39.276 13.634,39.522 C13.766,39.61 13.92,39.654 14.076,39.654 C14.112,39.654 14.142,39.644 14.178,39.63 C14.216,39.626 14.246,39.616 14.286,39.604 C14.49,39.548 14.642,39.446 14.738,39.298 L15.55,38.086 C16.012,38.366 16.496,38.626 16.988,38.858 L15.824,41.66 C15.722,41.654 15.612,41.668 15.514,41.688 C15.48,41.694 15.448,41.702 15.414,41.706 L15.338,41.716 C15.274,41.722 15.21,41.73 15.144,41.748 C15.016,41.784 14.898,41.84 14.786,41.894 L14.752,41.91 C14.728,41.92 14.704,41.93 14.68,41.94 C14.626,41.964 14.572,41.984 14.524,42.018 C14.392,42.1 14.282,42.206 14.168,42.314 C14.15,42.334 14.128,42.35 14.11,42.364 C14.076,42.392 14.036,42.422 14.004,42.464 C13.846,42.646 13.72,42.85 13.63,43.068 C13.512,43.352 13.454,43.65 13.458,43.958 C13.462,44.55 13.704,45.128 14.116,45.548 C14.334,45.766 14.586,45.938 14.868,46.054 C15.426,46.286 16.062,46.282 16.618,46.054 C17.182,45.82 17.62,45.38 17.856,44.818 C18.088,44.254 18.088,43.632 17.856,43.068 C17.728,42.762 17.54,42.492 17.298,42.27 L18.46,39.466 C18.966,39.648 19.492,39.808 20.022,39.94 L19.738,41.366 C19.696,41.576 19.738,41.788 19.858,41.964 C19.976,42.142 20.156,42.262 20.366,42.304 C20.418,42.314 20.468,42.32 20.52,42.32 C20.552,42.32 20.576,42.308 20.566,42.306 C20.732,42.294 20.878,42.242 21.002,42.148 C21.012,42.138 21.022,42.128 21.044,42.106 C21.182,41.982 21.266,41.838 21.298,41.68 L21.582,40.252 C22.114,40.33 22.658,40.384 23.206,40.41 L23.206,43.448 C22.786,43.604 22.424,43.88 22.156,44.244 C21.868,44.636 21.718,45.102 21.718,45.588 C21.718,46.2 21.956,46.774 22.388,47.204 C22.818,47.636 23.392,47.874 24.002,47.874 C24.922,47.874 25.75,47.326 26.108,46.478 C26.228,46.196 26.288,45.898 26.288,45.59 C26.288,44.632 25.694,43.782 24.8,43.45 L24.8,40.412 C25.34,40.386 25.884,40.334 26.424,40.256 L26.708,41.682 C26.74,41.84 26.824,41.982 26.974,42.12 C26.984,42.132 26.994,42.142 27.01,42.156 C27.126,42.244 27.264,42.294 27.428,42.308 L27.462,42.324 L27.488,42.324 C27.538,42.324 27.588,42.318 27.644,42.308 C28.074,42.222 28.356,41.8 28.27,41.37 L27.988,39.946 C28.508,39.816 29.032,39.656 29.548,39.474 L30.71,42.274 C30.47,42.496 30.278,42.772 30.154,43.072 C29.92,43.636 29.92,44.258 30.154,44.822 C30.388,45.384 30.826,45.824 31.392,46.058 C31.95,46.29 32.586,46.286 33.142,46.058 C33.706,45.826 34.144,45.386 34.378,44.822 C34.612,44.258 34.612,43.636 34.378,43.072 C34.29,42.86 34.164,42.656 34.004,42.468 C33.97,42.428 33.932,42.396 33.892,42.364 C33.872,42.346 33.852,42.33 33.834,42.314 L33.814,42.294 C33.714,42.198 33.61,42.098 33.486,42.02 C33.434,41.986 33.376,41.962 33.32,41.938 C33.296,41.928 33.272,41.918 33.25,41.908 L33.214,41.89 C33.104,41.838 32.99,41.78 32.864,41.748 C32.798,41.728 32.732,41.722 32.668,41.716 C32.642,41.712 32.616,41.71 32.59,41.706 C32.556,41.702 32.524,41.694 32.49,41.688 C32.396,41.668 32.29,41.652 32.184,41.66 L31.02,38.854 C31.51,38.62 31.992,38.362 32.454,38.084 C32.814,38.62 33.268,39.296 33.268,39.298 C33.366,39.442 33.518,39.546 33.728,39.604 C33.762,39.614 33.788,39.62 33.822,39.626 L33.848,39.634 C33.868,39.64 33.896,39.65 33.93,39.65 C34.074,39.65 34.218,39.608 34.344,39.532 L34.374,39.514 C34.738,39.27 34.836,38.774 34.594,38.41 L33.778,37.2 C34.224,36.87 34.648,36.524 35.04,36.168 L37.186,38.314 C37.098,38.508 37.038,38.71 37.006,38.92 C36.898,39.636 37.136,40.37 37.646,40.878 C38.076,41.31 38.65,41.548 39.262,41.548 C39.874,41.548 40.446,41.31 40.878,40.878 C41.31,40.448 41.546,39.874 41.546,39.262 C41.546,38.652 41.308,38.078 40.878,37.646 C40.446,37.214 39.872,36.976 39.262,36.976 C38.934,36.976 38.608,37.046 38.31,37.184 L36.164,35.038 C36.532,34.634 36.878,34.21 37.2,33.778 L38.386,34.57 L38.436,34.604 L38.438,34.604 C38.562,34.682 38.704,34.722 38.852,34.722 C38.886,34.722 38.914,34.712 38.954,34.7 C38.99,34.696 39.016,34.688 39.064,34.672 C39.244,34.624 39.386,34.536 39.482,34.412 L39.516,34.368 C39.52,34.362 39.524,34.356 39.528,34.35 L39.53,34.346 C39.754,33.982 39.654,33.502 39.296,33.262 L38.088,32.456 C38.368,31.99 38.626,31.506 38.856,31.016 L41.66,32.176 C41.648,32.506 41.704,32.828 41.83,33.136 C41.858,33.2 41.896,33.252 41.932,33.296 C41.954,33.324 41.976,33.35 41.994,33.384 L42.04,33.466 C42.12,33.608 42.204,33.758 42.324,33.876 C42.534,34.086 42.784,34.254 43.068,34.37 C43.63,34.604 44.252,34.602 44.818,34.37 C45.382,34.138 45.82,33.698 46.056,33.136 C46.288,32.572 46.288,31.95 46.056,31.386 C45.956,31.148 45.8,30.954 45.66,30.792 C45.402,30.488 45.126,30.278 44.818,30.15 C44.254,29.916 43.634,29.916 43.07,30.15 C42.766,30.274 42.496,30.462 42.272,30.706 L39.468,29.542 C39.65,29.032 39.81,28.506 39.942,27.982 L41.368,28.266 C41.44,28.28 41.542,28.288 41.584,28.268 C41.74,28.256 41.884,28.204 42.002,28.114 C42.016,28.102 42.028,28.09 42.05,28.07 C42.188,27.944 42.274,27.8 42.304,27.642 C42.346,27.434 42.304,27.22 42.184,27.044 C42.066,26.866 41.886,26.748 41.678,26.706 L40.252,26.42 C40.33,25.888 40.382,25.344 40.41,24.796 L43.446,24.796 Z M45.586,23.308 C45.968,23.308 46.278,23.618 46.278,24 C46.278,24.382 45.968,24.694 45.586,24.694 C45.204,24.694 44.894,24.382 44.894,24 C44.894,23.62 45.206,23.308 45.586,23.308 Z M43.304,15.474 C43.374,15.302 43.508,15.17 43.68,15.098 C43.764,15.062 43.854,15.046 43.944,15.046 C44.034,15.046 44.124,15.064 44.21,15.098 C44.38,15.168 44.514,15.302 44.584,15.472 C44.62,15.558 44.638,15.648 44.638,15.74 C44.638,15.828 44.62,15.92 44.584,16.004 C44.514,16.176 44.38,16.308 44.208,16.38 C44.038,16.452 43.85,16.45 43.678,16.38 C43.508,16.31 43.374,16.176 43.302,16.004 C43.268,15.922 43.25,15.832 43.25,15.74 C43.25,15.646 43.27,15.556 43.304,15.474 Z M38.724,8.326 C38.736,8.31 38.746,8.292 38.756,8.276 C38.764,8.264 38.77,8.252 38.774,8.248 C38.778,8.244 38.79,8.236 38.802,8.23 C38.82,8.22 38.836,8.21 38.85,8.198 C38.984,8.094 39.124,8.042 39.266,8.042 C39.45,8.042 39.624,8.114 39.756,8.246 C39.886,8.376 39.96,8.55 39.96,8.736 C39.96,8.922 39.888,9.096 39.756,9.226 C39.492,9.488 39.04,9.488 38.776,9.226 C38.646,9.096 38.574,8.922 38.574,8.736 C38.572,8.598 38.624,8.456 38.724,8.326 Z M31.616,3.832 L31.622,3.79 C31.694,3.62 31.826,3.49 31.996,3.416 C32.168,3.346 32.356,3.346 32.526,3.416 C32.784,3.524 32.952,3.774 32.954,4.05 C32.954,4.138 32.94,4.222 32.908,4.3 L32.9,4.322 C32.858,4.424 32.782,4.514 32.67,4.6 C32.646,4.618 32.622,4.634 32.6,4.646 C32.48,4.714 32.37,4.748 32.262,4.748 C32.166,4.744 32.084,4.732 31.998,4.698 C31.826,4.626 31.694,4.492 31.622,4.322 C31.616,4.308 31.614,4.288 31.61,4.266 C31.608,4.244 31.606,4.224 31.6,4.206 C31.57,4.074 31.576,3.95 31.616,3.832 Z M16.396,4.244 C16.392,4.274 16.388,4.3 16.38,4.32 L16.38,4.32 C16.308,4.492 16.176,4.624 16.004,4.698 C15.944,4.722 15.874,4.728 15.802,4.734 C15.78,4.736 15.76,4.742 15.738,4.748 C15.726,4.746 15.708,4.74 15.692,4.74 C15.692,4.74 15.692,4.74 15.692,4.74 C15.424,4.72 15.198,4.56 15.1,4.32 C15.064,4.236 15.046,4.144 15.046,4.05 C15.048,3.772 15.216,3.522 15.474,3.416 C15.532,3.392 15.602,3.378 15.7,3.374 L15.74,3.364 C15.828,3.364 15.918,3.382 16.004,3.416 C16.176,3.488 16.308,3.622 16.378,3.792 L16.386,3.834 C16.424,3.944 16.428,4.062 16.402,4.188 C16.4,4.208 16.398,4.226 16.396,4.244 Z M9.226,9.226 C8.962,9.488 8.51,9.488 8.246,9.226 C8.116,9.096 8.044,8.922 8.044,8.736 C8.044,8.55 8.116,8.376 8.248,8.246 C8.48,8.016 8.842,7.964 9.15,8.198 C9.166,8.21 9.182,8.22 9.2,8.23 C9.21,8.236 9.222,8.244 9.224,8.244 C9.23,8.252 9.236,8.262 9.244,8.276 C9.254,8.294 9.264,8.312 9.276,8.322 C9.332,8.4 9.366,8.462 9.386,8.528 C9.466,8.78 9.406,9.046 9.226,9.226 Z M4.698,16.004 L4.698,16.004 C4.626,16.176 4.494,16.308 4.322,16.378 C4.156,16.448 3.96,16.448 3.792,16.378 C3.622,16.308 3.488,16.176 3.418,16.006 C3.382,15.92 3.364,15.828 3.364,15.74 C3.364,15.648 3.382,15.558 3.418,15.474 C3.488,15.302 3.622,15.17 3.792,15.1 C3.876,15.064 3.964,15.048 4.056,15.048 C4.148,15.048 4.236,15.066 4.32,15.1 C4.49,15.17 4.624,15.304 4.696,15.476 C4.732,15.556 4.75,15.646 4.75,15.74 C4.75,15.832 4.732,15.922 4.698,16.004 Z M2.414,24.694 C2.032,24.694 1.722,24.384 1.722,24 C1.722,23.62 2.032,23.308 2.414,23.308 C2.796,23.308 3.106,23.62 3.106,24 C3.106,24.382 2.796,24.694 2.414,24.694 Z M4.696,32.526 C4.626,32.698 4.492,32.83 4.32,32.902 C4.154,32.972 3.958,32.972 3.79,32.902 C3.62,32.832 3.486,32.698 3.416,32.528 C3.38,32.442 3.362,32.35 3.362,32.262 C3.362,32.17 3.38,32.08 3.416,31.996 C3.486,31.824 3.62,31.692 3.792,31.62 C3.876,31.584 3.964,31.568 4.056,31.568 C4.148,31.568 4.236,31.586 4.32,31.62 C4.49,31.69 4.624,31.824 4.694,31.996 L4.694,31.996 C4.728,32.078 4.746,32.168 4.746,32.262 C4.75,32.354 4.732,32.444 4.696,32.526 Z M9.386,39.474 C9.366,39.538 9.33,39.604 9.274,39.678 C9.264,39.692 9.254,39.708 9.246,39.722 C9.24,39.736 9.232,39.748 9.224,39.756 C9.22,39.758 9.21,39.766 9.2,39.77 C9.182,39.78 9.166,39.79 9.152,39.802 C8.838,40.042 8.478,39.986 8.248,39.756 C8.118,39.626 8.044,39.452 8.044,39.266 C8.044,39.08 8.116,38.906 8.248,38.776 C8.378,38.648 8.552,38.574 8.738,38.574 C8.834,38.574 8.934,38.6 9.04,38.652 C9.1,38.682 9.17,38.72 9.228,38.776 C9.406,38.954 9.466,39.22 9.386,39.474 Z M16.388,44.156 C16.384,44.172 16.382,44.186 16.38,44.206 C16.31,44.378 16.176,44.51 16.004,44.582 C15.838,44.652 15.644,44.652 15.474,44.582 C15.218,44.474 15.05,44.226 15.046,43.948 C15.046,43.856 15.064,43.764 15.1,43.678 C15.136,43.59 15.188,43.512 15.254,43.45 C15.366,43.34 15.52,43.272 15.694,43.26 C15.706,43.258 15.718,43.256 15.734,43.252 L15.766,43.256 C15.858,43.258 15.936,43.274 16.004,43.3 C16.176,43.372 16.308,43.506 16.38,43.676 C16.386,43.692 16.39,43.714 16.394,43.738 C16.396,43.756 16.398,43.776 16.402,43.794 C16.43,43.924 16.424,44.044 16.388,44.156 Z M31.608,43.742 C31.612,43.716 31.614,43.696 31.622,43.68 C31.692,43.508 31.826,43.376 31.996,43.304 C32.166,43.234 32.362,43.22 32.6,43.356 C32.624,43.37 32.646,43.386 32.67,43.4 C32.786,43.486 32.858,43.576 32.9,43.678 L32.912,43.708 C32.94,43.786 32.954,43.868 32.954,43.95 C32.952,44.23 32.784,44.478 32.526,44.584 C32.358,44.652 32.168,44.654 31.996,44.584 C31.824,44.512 31.692,44.378 31.62,44.202 C31.62,44.19 31.616,44.172 31.61,44.156 C31.574,44.046 31.57,43.926 31.598,43.8 C31.604,43.78 31.606,43.76 31.608,43.742 Z M38.774,38.774 C38.904,38.646 39.078,38.572 39.264,38.572 C39.448,38.572 39.622,38.644 39.754,38.774 C39.884,38.904 39.958,39.078 39.958,39.264 C39.958,39.45 39.886,39.624 39.754,39.754 C39.526,39.984 39.164,40.04 38.852,39.802 C38.836,39.788 38.82,39.778 38.802,39.768 C38.792,39.764 38.782,39.756 38.778,39.754 L38.776,39.75 C38.772,39.744 38.764,39.734 38.758,39.72 C38.75,39.704 38.74,39.688 38.728,39.674 C38.628,39.544 38.574,39.4 38.574,39.262 C38.572,39.08 38.644,38.906 38.774,38.774 Z M24,1.72 C24.382,1.72 24.694,2.03 24.694,2.414 C24.694,2.798 24.382,3.108 24,3.108 C23.618,3.108 23.308,2.798 23.308,2.414 C23.308,2.03 23.618,1.72 24,1.72 Z M24,46.28 C23.618,46.28 23.308,45.97 23.308,45.586 C23.308,45.206 23.618,44.894 24,44.894 C24.382,44.894 24.694,45.204 24.694,45.586 C24.694,45.968 24.382,46.28 24,46.28 Z M38.73,25.702 C38.718,25.816 38.698,25.928 38.68,26.042 L38.652,26.218 C38.588,26.644 38.518,27.018 38.436,27.364 C38.392,27.562 38.34,27.754 38.286,27.948 C38.196,28.276 38.088,28.612 37.96,28.976 L37.91,29.118 C37.858,29.266 37.806,29.414 37.746,29.56 C37.596,29.934 37.424,30.288 37.274,30.588 C37.242,30.652 37.212,30.718 37.18,30.784 C37.13,30.892 37.078,30.998 37.02,31.102 C36.796,31.512 36.544,31.922 36.25,32.356 C36.136,32.52 36.012,32.682 35.89,32.84 L35.772,32.994 C35.612,33.202 35.442,33.422 35.262,33.632 C35.092,33.834 34.906,34.036 34.698,34.252 C34.532,34.426 34.344,34.61 34.112,34.828 L34.044,34.89 C33.874,35.05 33.698,35.214 33.518,35.366 C33.228,35.608 32.906,35.852 32.534,36.116 C31.312,36.982 29.98,37.652 28.576,38.106 C28.544,38.116 28.512,38.128 28.48,38.14 C28.45,38.152 28.422,38.162 28.394,38.172 C28.048,38.28 27.666,38.38 27.194,38.482 C27.158,38.49 27.122,38.5 27.086,38.51 C27.048,38.52 27.01,38.53 26.97,38.538 C26.538,38.628 26.106,38.682 25.74,38.726 C25.698,38.732 25.656,38.738 25.616,38.746 C25.578,38.752 25.538,38.76 25.502,38.764 C24.99,38.814 24.486,38.84 24,38.84 C19.072,38.84 14.474,36.392 11.702,32.294 C10.042,29.834 9.166,26.966 9.166,24 C9.166,22.994 9.268,21.99 9.468,21.014 C10.876,14.148 16.988,9.166 24,9.166 C24.504,9.166 25.01,9.192 25.502,9.242 C25.536,9.246 25.57,9.252 25.604,9.256 C25.642,9.264 25.68,9.27 25.718,9.274 C26.194,9.328 26.604,9.392 26.97,9.466 C27.002,9.474 27.034,9.482 27.066,9.49 C27.102,9.5 27.138,9.512 27.174,9.518 C27.674,9.63 28.05,9.726 28.392,9.832 C28.418,9.84 28.442,9.85 28.468,9.86 C28.498,9.872 28.528,9.884 28.556,9.894 C29.97,10.352 31.308,11.024 32.538,11.896 C32.928,12.172 33.238,12.408 33.514,12.638 C33.704,12.798 33.888,12.97 34.066,13.138 L34.11,13.18 C34.334,13.39 34.526,13.576 34.696,13.752 C34.904,13.97 35.088,14.174 35.26,14.374 C35.414,14.554 35.57,14.75 35.768,15.012 L35.876,15.152 C36,15.312 36.13,15.48 36.246,15.65 C36.542,16.084 36.792,16.492 37.012,16.894 C37.074,17.006 37.128,17.12 37.182,17.234 C37.212,17.296 37.24,17.358 37.27,17.42 C37.418,17.718 37.59,18.074 37.742,18.446 C37.802,18.594 37.854,18.742 37.908,18.894 L37.956,19.03 C38.084,19.394 38.192,19.73 38.282,20.058 C38.336,20.252 38.388,20.444 38.432,20.644 C38.512,20.982 38.582,21.356 38.648,21.788 L38.676,21.962 C38.694,22.076 38.714,22.19 38.726,22.306 C38.798,22.918 38.832,23.472 38.832,24.01 C38.836,24.532 38.8,25.088 38.73,25.702 Z M43.304,31.996 C43.374,31.824 43.508,31.692 43.68,31.62 C43.764,31.584 43.854,31.568 43.944,31.568 C44.034,31.568 44.124,31.586 44.21,31.62 C44.38,31.69 44.514,31.824 44.584,31.996 C44.62,32.082 44.638,32.17 44.638,32.262 C44.638,32.35 44.62,32.442 44.584,32.526 C44.514,32.698 44.38,32.83 44.208,32.902 C44.038,32.972 43.85,32.972 43.678,32.902 C43.508,32.832 43.374,32.698 43.302,32.526 C43.268,32.444 43.25,32.354 43.25,32.262 C43.25,32.168 43.27,32.078 43.304,31.996 Z" id="Shape"></path>
                    <path d="M22.61,17.86 C24.638,17.86 26.286,16.212 26.286,14.184 C26.286,12.156 24.638,10.506 22.61,10.506 C20.582,10.506 18.934,12.156 18.934,14.184 C18.934,16.212 20.584,17.86 22.61,17.86 Z M22.61,12.108 C23.754,12.108 24.686,13.04 24.686,14.184 C24.686,15.328 23.754,16.258 22.61,16.258 C21.464,16.258 20.532,15.328 20.532,14.184 C20.532,13.04 21.464,12.108 22.61,12.108 Z" id="Shape"></path>
                    <path d="M14.482,21.324 C12.662,21.324 11.18,22.804 11.18,24.624 C11.18,26.444 12.662,27.926 14.482,27.926 C16.302,27.926 17.782,26.444 17.782,24.624 C17.782,22.804 16.302,21.324 14.482,21.324 Z M14.482,26.326 C13.544,26.326 12.78,25.562 12.78,24.624 C12.78,23.686 13.544,22.924 14.482,22.924 C15.42,22.924 16.184,23.686 16.184,24.624 C16.184,25.562 15.418,26.326 14.482,26.326 Z" id="Shape"></path>
                    <path d="M32.802,15.668 C30.982,15.668 29.5,17.15 29.5,18.97 C29.5,20.79 30.982,22.272 32.802,22.272 C34.622,22.272 36.102,20.79 36.102,18.97 C36.102,17.15 34.624,15.668 32.802,15.668 Z M32.802,20.672 C31.864,20.672 31.1,19.908 31.1,18.97 C31.1,18.032 31.864,17.268 32.802,17.268 C33.74,17.268 34.504,18.032 34.504,18.97 C34.504,19.908 33.74,20.672 32.802,20.672 Z" id="Shape"></path>
                    <path d="M23.86,28.268 C21.386,28.268 19.374,30.282 19.374,32.754 C19.374,35.228 21.386,37.242 23.86,37.242 C26.334,37.242 28.346,35.228 28.346,32.754 C28.346,30.282 26.334,28.268 23.86,28.268 Z M23.86,35.64 C22.268,35.64 20.974,34.346 20.974,32.754 C20.974,31.162 22.268,29.87 23.86,29.87 C25.452,29.87 26.746,31.162 26.746,32.754 C26.746,34.346 25.452,35.64 23.86,35.64 Z" id="Shape"></path>
                    <path d="M32.802,27.514 C31.36,27.514 30.188,28.688 30.188,30.13 C30.188,31.572 31.36,32.744 32.802,32.744 C34.242,32.744 35.414,31.572 35.414,30.13 C35.414,28.688 34.244,27.514 32.802,27.514 Z M32.802,31.14 C32.244,31.14 31.788,30.686 31.788,30.128 C31.788,29.57 32.244,29.114 32.802,29.114 C33.36,29.114 33.814,29.57 33.814,30.128 C33.814,30.686 33.362,31.14 32.802,31.14 Z" id="Shape"></path>
                    <path d="M22.31,22.562 C22.31,24.004 23.482,25.176 24.924,25.176 C26.366,25.176 27.538,24.004 27.538,22.562 C27.538,21.12 26.366,19.946 24.924,19.946 C23.482,19.946 22.31,21.122 22.31,22.562 Z M25.938,22.562 C25.938,23.12 25.482,23.574 24.924,23.574 C24.366,23.574 23.91,23.12 23.91,22.562 C23.91,22.004 24.366,21.548 24.924,21.548 C25.482,21.548 25.938,22.004 25.938,22.562 Z" id="Shape"></path>
                </g>
            </g>
        </g>
    </g>
</svg>